<mxfile host="app.diagrams.net" modified="2024-06-18T15:15:58.662Z" agent="Mozilla/5.0 (Macintosh; Intel Mac OS X 10_15_7) AppleWebKit/537.36 (KHTML, like Gecko) Chrome/124.0.0.0 Safari/537.36" version="23.0.2" etag="7u0DdfuM5AkN7D_3lZ3N" type="github">
  <diagram name="Страница — 1" id="zNgmppGHhjIYxe5E2tYo">
    <mxGraphModel>
      <root>
        <mxCell id="0" />
        <mxCell id="1" parent="0" />
      </root>
    </mxGraphModel>
  </diagram>
</mxfile>
